<svg width="1268.7124999999999px" height="258.79999999999995px" xmlns="http://www.w3.org/2000/svg" viewBox="-384.35624999999993 -54.39999999999998 1268.7124999999999 258.79999999999995" style="background: rgba(0, 0, 0, 0);" preserveAspectRatio="xMidYMid"><defs><linearGradient id="editing-shiny-gradient" x1="0.04322727117869957" x2="0.9567727288213004" y1="0.2966316784620999" y2="0.7033683215379001" gradientUnits="objectBoundingBox"><stop offset="0.0" stop-color="#ffb200"></stop><stop offset="0.5" stop-color="#e10057"></stop><stop offset="1.0" stop-color="#5A1A80"></stop></linearGradient><linearGradient id="editing-shiny-gradient2" x1="0" x2="0" y1="0" y2="1"><stop offset="0.2" stop-color="#fff" stop-opacity="0.8"></stop><stop offset="0.8" stop-color="#fff" stop-opacity="0"></stop></linearGradient><filter id="editing-shiny2" x="-100%" y="-100%" width="300%" height="300%"><feMorphology operator="erode" radius="2"></feMorphology></filter><filter id="editing-shiny" x="-100%" y="-100%" width="300%" height="300%"><feFlood flood-color="#fff" result="flood"></feFlood><feConvolveMatrix in="SourceGraphic" result="conv" order="8,8" divisor="1" kernelMatrix="0 0 0 0 0 0 0 0 0 0 0 1 1 0 0 0 0 0 0 1 1 0 0 0 0 0 1 0 0 1 0 0 0 0 1 0 0 1 0 0 0 1 0 0 0 0 1 0 0 1 1 0 0 1 1 0 0 0 0 1 1 0 0 0 "></feConvolveMatrix><feOffset dx="0" dy="4" in="conv" result="offset"></feOffset><feComposite operator="in" in="flood" in2="offset" result="comp"></feComposite><feGaussianBlur in="offset" stdDeviation="3" result="shadow"></feGaussianBlur><feColorMatrix in="shadow" type="matrix" values="0.7 0 0 0 0  0 0.7 0 0 0  0 0 0.7 0 0  0 0 0 0.3 0" result="dark-shadow"></feColorMatrix><feOffset dx="0" dy="4" in="dark-shadow" result="offset-shadow"></feOffset><feOffset dx="0" dy="2" in="conv" result="offset-2"></feOffset><feComposite operator="out" in="offset" in2="offset-2" result="edge-diff"></feComposite><feGaussianBlur in="edge-diff" stdDeviation="1" result="edge-blur"></feGaussianBlur><feColorMatrix in="edge-blur" result="edge-shadow" type="matrix" values="0 0 0 0 0  0 0 0 0 0  0 0 0 0 0  0 0 0 0.5 0"></feColorMatrix><feComposite operator="in" in="edge-shadow" in2="offset" result="edge-shadow-in"></feComposite><feOffset dx="0" dy="1" in="edge-shadow-in" result="edge-shadow-final"></feOffset><feMerge result="out"><feMergeNode in="offset-shadow"></feMergeNode><feMergeNode in="comp"></feMergeNode><feMergeNode in="edge-shadow-final"></feMergeNode><feMergeNode in="SourceGraphic"></feMergeNode></feMerge></filter></defs><g filter="url(#editing-shiny)"><g transform="translate(-209.59999823570251, 137.56500148773193)"><path d="M44.04-0.14L44.04-0.14L35.89-0.29L35.89-0.29Q34.18-0.29 32.46-0.29L32.46-0.29L6.44 1.00L6.44 1.00Q4.29 1.00 4.29-0.43L4.29-0.43L4.29-0.43Q4.29-0.86 4.72-2.43L4.72-2.43L4.72-2.43Q6.15-5.72 6.79-23.31L6.79-23.31L6.79-23.31Q7.44-40.90 7.44-55.41L7.44-55.41L7.44-55.41Q7.44-69.93 6.86-78.94L6.86-78.94L6.86-78.94Q6.01-92.52 4.00-95.24L4.00-95.24L4.00-95.24Q2.43-97.24 2.43-97.81L2.43-97.81L2.43-97.81Q2.43-100.10 10.15-101.82L10.15-101.82L10.15-101.82Q17.88-103.53 21.24-103.53L21.24-103.53L21.24-103.53Q24.60-103.53 25.45-103.17L25.45-103.17L25.45-103.17Q26.31-102.82 26.31-101.67L26.31-101.67L26.31-101.67Q26.31-100.53 25.74-94.38L25.74-94.38L25.74-94.38Q24.31-76.22 24.31-52.12L24.31-52.12L24.31-52.12Q24.31-28.03 25.45-13.59L25.45-13.59L25.45-13.59Q25.45-12.01 28.17-10.87L28.17-10.87L28.17-10.87Q30.89-9.72 34.89-9.72L34.89-9.72L34.89-9.72Q48.91-9.72 48.91-31.32L48.91-31.32L48.91-31.32Q48.91-37.32 48.26-38.75L48.26-38.75L48.26-38.75Q47.62-40.18 47.62-40.61L47.62-40.61L47.62-40.61Q47.62-42.04 49.62-42.04L49.62-42.04L49.62-42.04Q51.19-42.04 53.84-40.47L53.84-40.47L53.84-40.47Q56.49-38.90 58.20-36.54L58.20-36.54L58.20-36.54Q59.92-34.18 61.35-29.10L61.35-29.10L61.35-29.10Q62.78-24.02 62.78-17.16L62.78-17.16L62.78-17.16Q62.78-0.14 58.63-0.14L58.63-0.14L58.63-0.14Q51.34-0.14 44.04-0.14ZM115.83-42.90L115.83-42.90L115.54-24.60L115.54-24.60Q115.54-5.58 119.69-1.72L119.69-1.72L119.69-1.72Q120.26-1.14 120.26-0.43L120.26-0.43L120.26-0.43Q120.26 1.72 111.04 1.72L111.04 1.72L111.04 1.72Q101.82 1.72 101.24-3.72L101.24-3.72L101.24-3.72Q101.10-5.01 101.10-9.01L101.10-9.01L101.67-31.89L101.67-31.89Q101.67-32.89 100.53-32.89L100.53-32.89L100.53-32.89Q93.67-32.89 87.66-29.03L87.66-29.03L87.66-29.03Q81.65-25.17 81.65-19.16L81.65-19.16L81.65-19.16Q81.65-16.02 83.37-13.87L83.37-13.87L83.37-13.87Q85.09-11.73 87.59-11.73L87.59-11.73L87.59-11.73Q90.09-11.73 91.73-12.73L91.73-12.73L91.73-12.73Q93.38-13.73 93.67-13.87L93.67-13.87L93.67-13.87Q96.10-13.59 96.10-8.79L96.10-8.79L96.10-8.79Q96.10-4.00 91.66-1.07L91.66-1.07L91.66-1.07Q87.23 1.86 82.37 1.86L82.37 1.86L82.37 1.86Q77.51 1.86 74.00 0.14L74.00 0.14L74.00 0.14Q70.50-1.57 68.93-3.72L68.93-3.72L68.93-3.72Q67.35-5.86 66.35-8.58L66.35-8.58L66.35-8.58Q65.35-11.87 65.35-14.30L65.35-14.30L65.35-14.30Q65.35-24.31 71.64-30.32L71.64-30.32L71.64-30.32Q77.94-36.32 87.80-38.90L87.80-38.90L87.80-38.90Q100.82-41.47 101.39-43.62L101.39-43.62L101.39-43.62Q101.82-45.19 101.82-48.91L101.82-48.91L101.82-48.91Q101.82-56.49 94.09-56.49L94.09-56.49L94.09-56.49Q90.81-56.49 88.23-54.41L88.23-54.41L88.23-54.41Q85.66-52.34 85.66-49.19L85.66-49.19L86.52-45.76L86.52-45.76Q86.23-43.33 81.37-42.90L81.37-42.90L79.79-42.76L79.79-42.76Q75.50-42.76 73.00-44.90L73.00-44.90L73.00-44.90Q70.50-47.05 70.50-50.62L70.50-50.62L70.50-50.62Q70.50-52.91 72.00-55.70L72.00-55.70L72.00-55.70Q73.50-58.49 75.79-60.20L75.79-60.20L75.79-60.20Q78.08-61.92 82.87-63.28L82.87-63.28L82.87-63.28Q87.66-64.64 92.09-64.64L92.09-64.64L92.09-64.64Q96.53-64.64 98.96-64.35L98.96-64.35L98.96-64.35Q101.39-64.06 105.61-62.99L105.61-62.99L105.61-62.99Q109.82-61.92 112.61-58.92L112.61-58.92L112.61-58.92Q115.40-55.91 115.62-52.55L115.62-52.55L115.62-52.55Q115.83-49.19 115.83-42.90ZM155.44-46.33L155.44-46.33L155.44-46.33Q154.87-45.76 154.87-45.12L154.87-45.12L154.87-45.12Q154.87-44.47 157.51-43.90L157.51-43.90L157.51-43.90Q160.16-43.33 163.31-40.76L163.31-40.76L163.31-40.76Q166.45-38.18 168.03-35.18L168.03-35.18L168.03-35.18Q171.03-29.32 171.31-24.88L171.31-24.88L171.46-23.02L171.46-23.02Q172.17-6.29 177.61-0.14L177.61-0.14L177.61-0.14Q178.32 0.86 178.32 1.29L178.32 1.29L178.32 1.29Q178.32 2.86 174.32 2.86L174.32 2.86L174.32 2.86Q162.31 2.86 159.02-2.15L159.02-2.15L159.02-2.15Q157.30-4.15 157.30-14.59L157.30-14.59L157.30-18.16L157.30-18.16Q157.30-31.46 154.01-36.61L154.01-36.61L154.01-36.61Q152.30-39.04 149.79-39.04L149.79-39.04L149.79-39.04Q147.29-39.04 144.57-34.68L144.57-34.68L144.57-34.68Q141.86-30.32 141.86-27.31L141.86-27.31L141.86-27.31Q141.86-15.30 142.43-10.58L142.43-10.58L142.43-10.58Q143-5.86 143-5.72L143-5.72L143-5.72Q143-1.57 137.35 0.72L137.35 0.72L137.35 0.72Q131.70 3.00 126.70 3.00L126.70 3.00L126.70 3.00Q124.84 3.00 124.84 0.72L124.84 0.72L124.84 0.14L124.84 0.14Q128.27-17.45 128.27-55.34L128.27-55.34L128.27-55.34Q128.27-67.78 127.70-76.36L127.70-76.36L127.41-79.22L127.41-79.22Q127.13-83.23 125.77-86.09L125.77-86.09L125.77-86.09Q124.41-88.95 123.12-89.80L123.12-89.80L121.98-90.52L121.98-90.52Q120.98-91.09 120.98-91.81L120.98-91.81L120.98-91.81Q120.98-94.09 127.84-96.95L127.84-96.95L127.84-96.95Q134.71-99.81 139.71-99.81L139.71-99.81L139.71-99.81Q142.00-99.67 142.14-98.10L142.14-98.10L142.14-98.10Q142.86-92.38 142.86-74.57L142.86-74.57L142.86-74.57Q142.86-56.77 142.00-46.19L142.00-46.19L142.00-46.19Q142.00-44.47 142.57-44.47L142.57-44.47L142.57-44.47Q143.14-44.47 144.36-46.12L144.36-46.12L144.36-46.12Q145.57-47.76 148.65-51.34L148.65-51.34L148.65-51.34Q151.72-54.91 156.94-59.63L156.94-59.63L156.94-59.63Q162.16-64.35 165.38-64.35L165.38-64.35L165.38-64.35Q168.60-64.35 171.74-62.78L171.74-62.78L171.74-62.78Q174.89-61.20 174.89-59.77L174.89-59.77L173.32-58.77L173.32-58.77Q165.17-55.77 155.44-46.33ZM187.47-26.46L187.47-26.46L187.76-55.34L187.76-55.34Q187.76-89.23 184.47-93.67L184.47-93.67L184.47-93.67Q182.90-95.67 182.90-96.45L182.90-96.45L182.90-96.45Q182.90-97.24 184.83-98.31L184.83-98.31L184.83-98.31Q186.76-99.39 192.34-100.67L192.34-100.67L192.34-100.67Q197.91-101.96 202.20-101.96L202.20-101.96L202.20-101.96Q206.49-101.96 206.49-99.96L206.49-99.96L206.21-98.10L206.21-98.10Q204.49-82.65 204.49-67.93L204.49-67.93L204.49-67.93Q204.49-53.20 205.35-35.04L205.35-35.04L205.35-35.04Q206.21-16.87 206.21-8.29L206.21-8.29L206.21-8.29Q206.21 3.29 197.27 11.65L197.27 11.65L197.27 11.65Q188.33 20.02 176.03 20.74L176.03 20.74L176.03 20.74Q173.60 20.45 173.60 19.02L173.60 19.02L173.60 19.02Q173.60 18.02 174.25 17.45L174.25 17.45L174.25 17.45Q174.89 16.87 175.75 16.02L175.75 16.02L175.75 16.02Q176.61 15.16 178.89 11.58L178.89 11.58L178.89 11.58Q181.18 8.01 182.90 3.50L182.90 3.50L182.90 3.50Q184.61-1.00 186.04-9.01L186.04-9.01L186.04-9.01Q187.47-17.02 187.47-26.46ZM253.54-81.94L253.54-81.94L253.54-81.94Q242.24-67.78 237.24-53.63L237.24-53.63L237.38-53.63L237.38-53.63Q257.26-53.63 260.19-53.55L260.19-53.55L260.19-53.55Q263.12-53.48 263.41-53.77L263.41-53.77L263.41-53.77Q263.69-54.05 263.84-54.48L263.84-54.48L263.84-54.48Q261.40-72.07 259.97-78.44L259.97-78.44L259.97-78.44Q258.54-84.80 257.11-84.80L257.11-84.80L257.11-84.80Q255.68-84.80 253.54-81.94ZM240.81-14.59L240.81-14.59L243.96-15.16L243.96-15.16Q245.39-15.16 245.39-13.59L245.39-13.59L245.39-13.59Q245.39-8.58 243.39-5.15L243.39-5.15L243.39-5.15Q241.38-1.72 238.38-0.29L238.38-0.29L238.38-0.29Q233.52 2.15 230.09 2.15L230.09 2.15L230.09 2.15Q223.51 2.15 220.22-2.79L220.22-2.79L220.22-2.79Q216.93-7.72 216.93-17.66L216.93-17.66L216.93-17.66Q216.93-27.60 222.37-43.47L222.37-43.47L214.07-43.47L214.07-43.47Q212.50-43.47 212.50-45.05L212.50-45.05L212.50-45.05Q212.50-46.62 214.93-50.12L214.93-50.12L214.93-50.12Q217.36-53.63 220.08-53.63L220.08-53.63L226.51-53.63L226.51-53.63Q236.67-76.22 250.39-92.66L250.39-92.66L250.39-92.66Q253.97-96.95 259.19-100.67L259.19-100.67L259.19-100.67Q264.41-104.39 267.27-104.39L267.27-104.39L267.27-104.39Q270.13-104.39 271.56-101.82L271.56-101.82L271.56-101.82Q275.28-95.81 280.28-57.92L280.28-57.92L280.28-57.92Q282.00-41.61 286.21-24.24L286.21-24.24L286.21-24.24Q290.43-6.86 294.01-4.00L294.01-4.00L294.01-4.00Q294.87-3.43 294.87-2.57L294.87-2.57L294.87-2.57Q294.87-0.43 288.79 1.43L288.79 1.43L288.79 1.43Q282.71 3.29 279.49 3.29L279.49 3.29L279.49 3.29Q276.28 3.29 274.56 2.50L274.56 2.50L274.56 2.50Q272.84 1.72 272.42 0.86L272.42 0.86L272.42 0.86Q269.84-4.72 267.27-25.74L267.27-25.74L266.41-32.46L266.41-32.46Q265.84-39.18 265.27-42.61L265.27-42.61L264.26-43.33L234.38-43.47L234.38-43.47Q232.66-36.18 232.66-30.75L232.66-30.75L232.66-30.75Q232.66-25.31 233.02-22.81L233.02-22.81L233.02-22.81Q233.38-20.31 235.38-17.45L235.38-17.45L235.38-17.45Q237.38-14.59 240.81-14.59ZM344.06-92.95L344.06-92.95L343.49-98.24L343.49-98.24Q343.49-100.82 350.06-101.89L350.06-101.89L350.06-101.89Q356.64-102.96 362.93-102.96L362.93-102.96L362.93-102.96Q369.23-102.96 369.23-100.82L369.23-100.82L369.23-100.82Q369.23-99.81 367.80-98.38L367.80-98.38L367.80-98.38Q362.22-92.52 354.28-79.22L354.28-79.22L354.28-79.22Q346.35-65.92 341.20-55.48L341.20-55.48L336.05-45.19L336.05-45.19Q333.48-39.75 333.48-33.25L333.48-33.25L333.48-33.25Q333.48-26.74 333.91-20.38L333.91-20.38L333.91-20.38Q334.33-14.01 334.76-9.58L334.76-9.58L334.76-9.58Q335.19-5.15 335.19-4.43L335.19-4.43L335.19-4.43Q335.19-0.86 328.61 1.36L328.61 1.36L328.61 1.36Q322.04 3.58 317.82 3.58L317.82 3.58L317.82 3.58Q313.60 3.58 313.60 2.00L313.60 2.00L314.03 0.14L314.03 0.14Q316.46-12.87 316.46-30.75L316.46-30.75L316.46-30.75Q316.46-35.18 315.03-41.76L315.03-41.76L314.60-43.62L314.60-43.62Q305.45-68.35 297.44-80.08L297.44-80.08L297.44-80.08Q290.58-90.52 287.43-92.38L287.43-92.38L286.14-93.24L286.14-93.24Q284.71-94.09 284.71-95.24L284.71-95.24L284.71-95.24Q284.71-97.67 292.15-100.24L292.15-100.24L292.15-100.24Q299.59-102.82 303.37-102.82L303.37-102.82L303.37-102.82Q307.16-102.82 308.45-100.53L308.45-100.53L308.45-100.53Q321.32-73.65 328.47-57.06L328.47-57.06L328.47-57.06Q328.90-56.20 329.69-56.20L329.69-56.20L329.69-56.20Q330.47-56.20 331.55-57.92L331.55-57.92L331.55-57.92Q332.62-59.63 334.76-63.35L334.76-63.35L334.76-63.35Q336.91-67.07 340.48-76.58L340.48-76.58L340.48-76.58Q344.06-86.09 344.06-92.95ZM394.25-81.94L394.25-81.94L394.25-81.94Q382.95-67.78 377.95-53.63L377.95-53.63L378.09-53.63L378.09-53.63Q397.97-53.63 400.90-53.55L400.90-53.55L400.90-53.55Q403.83-53.48 404.12-53.77L404.12-53.77L404.12-53.77Q404.40-54.05 404.55-54.48L404.55-54.48L404.55-54.48Q402.12-72.07 400.69-78.44L400.69-78.44L400.69-78.44Q399.26-84.80 397.83-84.80L397.83-84.80L397.83-84.80Q396.40-84.80 394.25-81.94ZM381.52-14.59L381.52-14.59L384.67-15.16L384.67-15.16Q386.10-15.16 386.10-13.59L386.10-13.59L386.10-13.59Q386.10-8.58 384.10-5.15L384.10-5.15L384.10-5.15Q382.10-1.72 379.09-0.29L379.09-0.29L379.09-0.29Q374.23 2.15 370.80 2.15L370.80 2.15L370.80 2.15Q364.22 2.15 360.93-2.79L360.93-2.79L360.93-2.79Q357.64-7.72 357.64-17.66L357.64-17.66L357.64-17.66Q357.64-27.60 363.08-43.47L363.08-43.47L354.78-43.47L354.78-43.47Q353.21-43.47 353.21-45.05L353.21-45.05L353.21-45.05Q353.21-46.62 355.64-50.12L355.64-50.12L355.64-50.12Q358.07-53.63 360.79-53.63L360.79-53.63L367.22-53.63L367.22-53.63Q377.38-76.22 391.11-92.66L391.11-92.66L391.11-92.66Q394.68-96.95 399.90-100.67L399.90-100.67L399.90-100.67Q405.12-104.39 407.98-104.39L407.98-104.39L407.98-104.39Q410.84-104.39 412.27-101.82L412.27-101.82L412.27-101.82Q415.99-95.81 420.99-57.92L420.99-57.92L420.99-57.92Q422.71-41.61 426.93-24.24L426.93-24.24L426.93-24.24Q431.14-6.86 434.72-4.00L434.72-4.00L434.72-4.00Q435.58-3.43 435.58-2.57L435.58-2.57L435.58-2.57Q435.58-0.43 429.50 1.43L429.50 1.43L429.50 1.43Q423.42 3.29 420.21 3.29L420.21 3.29L420.21 3.29Q416.99 3.29 415.27 2.50L415.27 2.50L415.27 2.50Q413.56 1.72 413.13 0.86L413.13 0.86L413.13 0.86Q410.55-4.72 407.98-25.74L407.98-25.74L407.12-32.46L407.12-32.46Q406.55-39.18 405.98-42.61L405.98-42.61L404.98-43.33L375.09-43.47L375.09-43.47Q373.37-36.18 373.37-30.75L373.37-30.75L373.37-30.75Q373.37-25.31 373.73-22.81L373.73-22.81L373.73-22.81Q374.09-20.31 376.09-17.45L376.09-17.45L376.09-17.45Q378.09-14.59 381.52-14.59ZM526.53-32.75L526.53-32.75L526.53-32.75Q529.24-32.75 529.24-25.88L529.24-25.88L529.24-25.88Q529.24-19.02 526.67-13.59L526.67-13.59L526.67-13.59Q524.10-8.15 520.45-5.15L520.45-5.15L520.45-5.15Q516.80-2.15 512.23-0.29L512.23-0.29L512.23-0.29Q496.93 6.44 483.63-0.57L483.63-0.57L483.63-0.57Q476.91-4.15 473.33-9.08L473.33-9.08L473.33-9.08Q469.76-14.01 467.61-20.88L467.61-20.88L467.61-20.88Q464.32-31.17 464.32-42.47L464.32-42.47L464.32-42.47Q464.32-53.77 466.47-63.64L466.47-63.64L466.47-63.64Q468.61-73.50 473.04-82.44L473.04-82.44L473.04-82.44Q477.48-91.38 485.63-96.81L485.63-96.81L485.63-96.81Q493.78-102.25 504.50-102.25L504.50-102.25L504.50-102.25Q509.08-102.25 514.01-100.74L514.01-100.74L514.01-100.74Q518.95-99.24 522.09-97.03L522.09-97.03L522.09-97.03Q525.24-94.81 527.67-90.23L527.67-90.23L527.67-90.23Q530.10-85.66 530.10-79.51L530.10-79.51L530.10-79.51Q530.10-72.93 526.96-67.64L526.96-67.64L526.96-67.64Q525.53-65.21 522.38-63.28L522.38-63.28L522.38-63.28Q519.23-61.35 514.94-61.35L514.94-61.35L514.94-61.35Q508.37-61.35 505.65-67.21L505.65-67.21L505.65-67.21Q504.50-69.50 504.50-72.22L504.50-72.22L504.50-72.22Q504.50-74.93 506.36-75.36L506.36-75.36L506.36-75.36Q508.37-75.93 510.08-78.51L510.08-78.51L510.08-78.51Q511.80-81.08 511.80-84.51L511.80-84.51L511.80-84.51Q511.80-87.23 510.37-89.23L510.37-89.23L510.37-89.23Q507.65-92.81 502.50-92.81L502.50-92.81L502.50-92.81Q497.35-92.81 493.14-88.09L493.14-88.09L493.14-88.09Q488.92-83.37 486.77-76.22L486.77-76.22L486.77-76.22Q482.48-61.92 482.48-49.91L482.48-49.91L482.48-49.91Q482.48-37.90 485.77-30.60L485.77-30.60L485.77-30.60Q489.78-21.59 495.92-18.59L495.92-18.59L495.92-18.59Q499.79-16.73 504.79-16.73L504.79-16.73L504.79-16.73Q513.23-16.73 519.95-24.31L519.95-24.31L519.95-24.31Q522.81-27.31 524.67-31.46L524.67-31.46L524.67-31.46Q525.38-32.75 526.53-32.75ZM581.44-49.19L580.72-38.32L581.29-33.32L581.29-33.32Q581.29-30.60 576.15-30.60L576.15-30.60L576.15-30.60Q565.71-30.60 565.71-38.47L565.71-38.47L565.71-38.47Q565.71-40.33 566.71-43.62L566.71-43.62L566.71-43.62Q567.71-46.90 567.71-49.34L567.71-49.34L567.71-49.34Q567.71-51.77 566.28-53.55L566.28-53.55L566.28-53.55Q564.85-55.34 562.13-55.34L562.13-55.34L562.13-55.34Q559.42-55.34 557.49-53.41L557.49-53.41L557.49-53.41Q555.55-51.48 555.13-49.48L555.13-49.48L554.55-47.48L554.55-47.48Q553.70-43.04 553.70-32.68L553.70-32.68L553.70-32.68Q553.70-22.31 553.98-16.37L553.98-16.37L553.98-16.37Q554.27-10.44 554.55-8.22L554.55-8.22L554.55-8.22Q554.84-6.01 554.84-5.58L554.84-5.58L554.84-5.58Q554.84-2.00 550.41 0.21L550.41 0.21L550.41 0.21Q545.97 2.43 541.54 2.43L541.54 2.43L541.54 2.43Q537.11 2.43 537.11 0.57L537.11 0.57L537.82-3.86L537.82-3.86Q539.82-16.30 539.82-36.32L539.82-36.32L539.82-36.32Q539.82-56.34 538.39-63.49L538.39-63.49L538.39-63.49Q538.39-65.21 541.40-65.21L541.40-65.21L541.40-65.21Q549.12-65.21 551.69-59.92L551.69-59.92L551.69-59.92Q551.84-59.35 552.19-59.35L552.19-59.35L552.19-59.35Q552.55-59.35 554.13-60.63L554.13-60.63L554.13-60.63Q558.84-64.49 565.28-64.49L565.28-64.49L565.28-64.49Q569.28-64.49 573.29-62.92L573.29-62.92L573.29-62.92Q581.44-59.63 581.44-49.19L581.44-49.19ZM601.46-36.32L601.46-36.32L601.60-32.75L601.60-32.75Q601.60-31.89 602.75-31.89L602.75-31.89L602.75-31.89Q607.32-32.32 610.75-34.25L610.75-34.25L610.75-34.25Q614.18-36.18 615.90-38.61L615.90-38.61L615.90-38.61Q619.33-43.90 619.62-47.76L619.62-47.76L619.76-49.48L619.76-49.48Q619.76-57.20 613.61-57.20L613.61-57.20L613.61-57.20Q609.04-57.20 606.18-53.20L606.18-53.20L606.18-53.20Q601.46-46.90 601.46-36.32ZM632.63-17.30L632.63-17.30L632.63-17.30Q632.63-11.87 630.42-7.79L630.42-7.79L630.42-7.79Q628.20-3.72 625.41-1.79L625.41-1.79L625.41-1.79Q622.62 0.14 618.90 1.29L618.90 1.29L618.90 1.29Q614.18 2.72 609.89 2.72L609.89 2.72L609.89 2.72Q597.88 2.72 592.16-6.29L592.16-6.29L592.16-6.29Q586.44-15.30 586.44-29.24L586.44-29.24L586.44-29.24Q586.44-43.19 593.52-54.05L593.52-54.05L593.52-54.05Q600.60-64.92 614.76-64.92L614.76-64.92L614.76-64.92Q627.63-64.92 632.20-55.91L632.20-55.91L632.20-55.91Q634.06-52.48 634.06-49.41L634.06-49.41L634.06-49.41Q634.06-46.33 633.78-44.54L633.78-44.54L633.78-44.54Q633.49-42.76 631.77-39.18L631.77-39.18L631.77-39.18Q630.06-35.61 627.20-32.75L627.20-32.75L627.20-32.75Q624.34-29.89 618.19-27.31L618.19-27.31L618.19-27.31Q612.04-24.74 603.75-23.88L603.75-23.88L603.75-23.88Q602.60-23.88 602.60-22.88L602.60-22.88L602.60-22.88Q602.60-21.59 603.53-19.09L603.53-19.09L603.53-19.09Q604.46-16.59 605.61-14.87L605.61-14.87L605.61-14.87Q608.75-10.87 614.90-10.87L614.90-10.87L614.90-10.87Q621.05-10.87 625.34-14.87L625.34-14.87L625.34-14.87Q627.63-17.02 629.06-20.16L629.06-20.16L629.06-20.16Q629.63-21.31 630.56-21.31L630.56-21.31L630.56-21.31Q631.49-21.31 632.06-19.73L632.06-19.73L632.06-19.73Q632.63-18.16 632.63-17.30ZM686.26-42.90L686.26-42.90L685.97-24.60L685.97-24.60Q685.97-5.58 690.12-1.72L690.12-1.72L690.12-1.72Q690.69-1.14 690.69-0.43L690.69-0.43L690.69-0.43Q690.69 1.72 681.47 1.72L681.47 1.72L681.47 1.72Q672.24 1.72 671.67-3.72L671.67-3.72L671.67-3.72Q671.53-5.01 671.53-9.01L671.53-9.01L672.10-31.89L672.10-31.89Q672.10-32.89 670.96-32.89L670.96-32.89L670.96-32.89Q664.09-32.89 658.09-29.03L658.09-29.03L658.09-29.03Q652.08-25.17 652.08-19.16L652.08-19.16L652.08-19.16Q652.08-16.02 653.80-13.87L653.80-13.87L653.80-13.87Q655.51-11.73 658.01-11.73L658.01-11.73L658.01-11.73Q660.52-11.73 662.16-12.73L662.16-12.73L662.16-12.73Q663.81-13.73 664.09-13.87L664.09-13.87L664.09-13.87Q666.52-13.59 666.52-8.79L666.52-8.79L666.52-8.79Q666.52-4.00 662.09-1.07L662.09-1.07L662.09-1.07Q657.66 1.86 652.80 1.86L652.80 1.86L652.80 1.86Q647.93 1.86 644.43 0.14L644.43 0.14L644.43 0.14Q640.93-1.57 639.35-3.72L639.35-3.72L639.35-3.72Q637.78-5.86 636.78-8.58L636.78-8.58L636.78-8.58Q635.78-11.87 635.78-14.30L635.78-14.30L635.78-14.30Q635.78-24.31 642.07-30.32L642.07-30.32L642.07-30.32Q648.36-36.32 658.23-38.90L658.23-38.90L658.23-38.90Q671.24-41.47 671.81-43.62L671.81-43.62L671.81-43.62Q672.24-45.19 672.24-48.91L672.24-48.91L672.24-48.91Q672.24-56.49 664.52-56.49L664.52-56.49L664.52-56.49Q661.23-56.49 658.66-54.41L658.66-54.41L658.66-54.41Q656.08-52.34 656.08-49.19L656.08-49.19L656.94-45.76L656.94-45.76Q656.66-43.33 651.79-42.90L651.79-42.90L650.22-42.76L650.22-42.76Q645.93-42.76 643.43-44.90L643.43-44.90L643.43-44.90Q640.93-47.05 640.93-50.62L640.93-50.62L640.93-50.62Q640.93-52.91 642.43-55.70L642.43-55.70L642.43-55.70Q643.93-58.49 646.22-60.20L646.22-60.20L646.22-60.20Q648.50-61.92 653.30-63.28L653.30-63.28L653.30-63.28Q658.09-64.64 662.52-64.64L662.52-64.64L662.52-64.64Q666.95-64.64 669.38-64.35L669.38-64.35L669.38-64.35Q671.81-64.06 676.03-62.99L676.03-62.99L676.03-62.99Q680.25-61.92 683.04-58.92L683.04-58.92L683.04-58.92Q685.83-55.91 686.04-52.55L686.04-52.55L686.04-52.55Q686.26-49.19 686.26-42.90ZM692.84-55.77L692.84-55.77L693.26-61.49L693.26-61.49Q693.41-62.78 695.27-62.78L695.27-62.78L700.27-62.78L699.70-74.22L699.70-74.79L699.70-74.79Q699.70-78.08 704.70-81.08L704.70-81.08L704.70-81.08Q709.71-84.08 713.86-84.08L713.86-84.08L713.86-84.08Q715.14-84.08 715.14-82.94L715.14-82.94L715.14-82.80L715.14-82.80Q714.57-78.94 714.00-62.92L714.00-62.92L714.00-62.92Q720.29-62.92 722.01-63.21L722.01-63.21L722.01-63.21Q723.72-63.49 723.87-63.49L723.87-63.49L723.87-63.49Q724.87-63.49 724.87-61.78L724.87-61.78L724.87-61.78Q724.87-60.06 723.29-57.41L723.29-57.41L723.29-57.41Q721.72-54.77 719.86-54.63L719.86-54.63L713.86-54.63L713.86-54.63Q713.71-49.76 713.71-38.25L713.71-38.25L713.71-38.25Q713.71-26.74 713.93-19.31L713.93-19.31L713.93-19.31Q714.14-11.87 714.43-8.08L714.43-8.08L714.43-8.08Q714.71-4.29 715.07-2.00L715.07-2.00L715.07-2.00Q715.43 0.29 715.64 1.29L715.64 1.29L715.64 1.29Q715.86 2.29 715.86 2.57L715.86 2.57L715.86 2.57Q715.86 4.00 714.00 4.15L714.00 4.15L714.00 4.15Q708.42 4.15 702.92 2.57L702.92 2.57L702.92 2.57Q697.41 1.00 697.41-2.86L697.41-2.86L697.41-2.86Q700.41-26.88 700.41-54.48L700.41-54.48L700.41-54.48Q696.55-54.48 694.55-54.20L694.55-54.20L694.41-54.20L694.41-54.20Q693.12-54.20 692.84-55.77ZM741.74-76.51L741.74-76.51L738.31-76.65L738.31-76.65Q734.45-76.65 733.30-74.79L733.30-74.79L733.30-74.79Q733.02-74.36 732.59-74.36L732.59-74.36L732.59-74.36Q730.73-74.36 730.73-80.72L730.73-80.72L730.73-80.72Q730.73-87.09 732.66-88.80L732.66-88.80L732.66-88.80Q734.59-90.52 739.38-90.52L739.38-90.52L739.38-90.52Q744.17-90.52 745.89-88.87L745.89-88.87L745.89-88.87Q747.60-87.23 747.60-83.37L747.60-83.37L747.60-83.37Q747.60-79.51 746.32-78.01L746.32-78.01L746.32-78.01Q745.03-76.51 741.74-76.51ZM730.30-4.29L730.30-4.29L731.87-37.61L731.87-37.61Q731.87-49.48 729.16-53.77L729.16-53.77L729.16-53.77Q728.30-55.20 727.16-55.91L727.16-55.91L727.16-55.91Q726.30-56.20 726.30-57.06L726.30-57.06L726.30-57.06Q726.30-59.63 733.59-62.06L733.59-62.06L733.59-62.06Q740.88-64.49 744.24-64.49L744.24-64.49L744.24-64.49Q747.60-64.49 747.75-62.78L747.75-62.78L747.75-62.78Q747.75-59.92 746.96-46.55L746.96-46.55L746.96-46.55Q746.17-33.18 746.17-18.45L746.17-18.45L746.17-18.45Q746.17-3.72 747.89-0.14L747.89-0.14L747.89-0.14Q748.32 0.57 748.32 1.29L748.32 1.29L748.32 1.29Q748.32 3.15 742.89 3.15L742.89 3.15L742.89 3.15Q737.45 3.15 731.73 0.29L731.73 0.29L731.73 0.29Q730.30-0.43 730.30-4.29ZM770.63-53.91L770.63-53.91L770.63-53.91Q766.91-53.77 765.26-53.70L765.26-53.70L765.26-53.70Q763.62-53.63 763.62-54.48L763.62-54.48L763.62-54.48Q763.62-55.34 764.48-56.20L764.48-56.20L764.48-56.20Q773.63-64.64 795.37-64.64L795.37-64.64L795.37-64.64Q802.80-64.64 807.09-63.35L807.09-63.35L808.52-62.92L808.52-62.92Q810.24-62.21 810.24-61.35L810.24-61.35L810.24-61.35Q810.24-60.63 809.24-60.20L809.24-60.20L809.24-60.20Q805.38-59.06 801.80-56.56L801.80-56.56L801.80-56.56Q798.23-54.05 798.23-53.05L798.23-53.05L799.08-52.05L799.08-52.05Q803.66-49.48 806.16-43.90L806.16-43.90L806.16-43.90Q808.67-38.32 808.95-34.03L808.95-34.03L809.24-29.60L809.24-29.60Q809.24-15.44 801.37-6.29L801.37-6.29L801.37-6.29Q793.51 2.86 779.92 2.86L779.92 2.86L779.92 2.86Q773.06 2.86 768.05 0.43L768.05 0.43L768.05 0.43Q763.05-2.00 760.69-5.08L760.69-5.08L760.69-5.08Q758.33-8.15 756.90-12.01L756.90-12.01L756.90-12.01Q755.18-17.30 755.18-22.95L755.18-22.95L755.18-22.95Q755.18-28.60 757.11-34.32L757.11-34.32L757.11-34.32Q759.04-40.04 761.55-42.76L761.55-42.76L761.55-42.76Q764.05-45.47 767.20-47.19L767.20-47.19L767.20-47.19Q771.20-49.34 773.63-49.34L773.63-49.34L773.63-49.34Q776.06-49.34 776.06-48.33L776.06-48.33L775.20-46.90L775.20-46.90Q772.06-43.19 770.70-37.18L770.70-37.18L770.70-37.18Q769.34-31.17 769.34-26.53L769.34-26.53L769.34-26.53Q769.34-21.88 770.48-17.30L770.48-17.30L770.48-17.30Q771.63-12.73 773.06-10.51L773.06-10.51L773.06-10.51Q774.49-8.29 776.35-7.15L776.35-7.15L776.35-7.15Q779.06-5.43 782.07-5.43L782.07-5.43L782.07-5.43Q785.07-5.43 787.93-7.79L787.93-7.79L787.93-7.79Q790.79-10.15 792.08-14.01L792.08-14.01L792.08-14.01Q794.65-21.16 794.65-28.74L794.65-28.74L794.65-28.74Q794.65-40.76 788.57-47.33L788.57-47.33L788.57-47.33Q782.50-53.91 770.63-53.91ZM816.24 1.00L816.24 1.00L816.24 1.00Q818.82-14.44 818.82-36.04L818.82-36.04L818.82-36.04Q818.82-57.63 817.53-64.06L817.53-64.06L817.53-64.06Q817.53-65.92 821.82-65.92L821.82-65.92L821.82-65.92Q828.40-65.92 830.54-60.92L830.54-60.92L830.54-60.92Q830.69-60.49 831.26-60.49L831.26-60.49L831.26-60.49Q831.83-60.49 832.12-60.78L832.12-60.78L832.12-60.78Q836.55-65.35 845.85-65.35L845.85-65.35L845.85-65.35Q855.14-65.35 860.57-60.63L860.57-60.63L860.57-60.63Q866.01-55.91 866.01-46.90L866.01-46.90L866.01-46.90Q866.01-41.47 865.08-31.46L865.08-31.46L865.08-31.46Q864.15-21.45 864.15-16.59L864.15-16.59L864.15-16.59Q864.15-5.01 868.01 0.14L868.01 0.14L868.01 0.14Q868.58 0.86 868.58 1.57L868.58 1.57L868.58 1.57Q868.58 3.43 864.58 3.43L864.58 3.43L864.58 3.43Q846.85 3.43 846.85-12.30L846.85-12.30L846.85-12.30Q846.85-18.30 849.56-29.03L849.56-29.03L849.56-29.03Q852.28-39.75 852.28-45.33L852.28-45.33L852.28-45.33Q852.28-56.77 842.84-56.77L842.84-56.77L842.84-56.77Q838.27-56.77 835.91-54.05L835.91-54.05L835.91-54.05Q833.55-51.34 833.26-47.83L833.26-47.83L833.26-47.83Q832.98-44.33 832.98-34.61L832.98-34.61L832.98-34.61Q832.98-19.73 833.98-8.72L833.98-8.72L834.26-5.58L834.26-5.58Q834.26-1.57 829.04 0.64L829.04 0.64L829.04 0.64Q823.82 2.86 820.03 2.86L820.03 2.86L820.03 2.86Q816.24 2.86 816.24 1.00ZM916.77-19.59L916.77-19.59L916.77-19.59Q916.77-13.44 914.41-8.87L914.41-8.87L914.41-8.87Q912.05-4.29 909.05-2.15L909.05-2.15L909.05-2.15Q906.05 0 901.90 1.29L901.90 1.29L901.90 1.29Q896.47 3.00 892.03 3.00L892.03 3.00L892.03 3.00Q882.74 3.00 876.59-0.64L876.59-0.64L876.59-0.64Q870.44-4.29 870.44-12.30L870.44-12.30L870.44-12.30Q870.44-17.02 873.02-20.02L873.02-20.02L873.02-20.02Q877.02-24.45 882.60-24.45L882.60-24.45L882.60-24.45Q884.31-24.45 884.31-22.88L884.31-22.88L884.31-22.88Q884.31-22.74 883.67-20.66L883.67-20.66L883.67-20.66Q883.03-18.59 883.03-15.44L883.03-15.44L883.03-15.44Q883.03-12.30 885.53-9.87L885.53-9.87L885.53-9.87Q888.03-7.44 891.61-7.44L891.61-7.44L891.61-7.44Q895.18-7.44 897.33-8.65L897.33-8.65L897.33-8.65Q899.47-9.87 900.33-11.73L900.33-11.73L900.33-11.73Q901.62-14.30 901.62-16.59L901.62-16.59L901.62-16.59Q901.62-20.74 897.47-23.74L897.47-23.74L897.47-23.74Q893.32-26.74 888.32-28.46L888.32-28.46L888.32-28.46Q883.31-30.17 879.16-34.18L879.16-34.18L879.16-34.18Q875.02-38.18 875.02-44.19L875.02-44.19L875.02-44.19Q875.02-54.48 881.52-59.63L881.52-59.63L881.52-59.63Q888.03-64.78 899.18-64.78L899.18-64.78L899.18-64.78Q904.05-64.78 909.41-63.42L909.41-63.42L909.41-63.42Q914.77-62.06 914.77-58.84L914.77-58.84L914.77-58.84Q914.77-55.63 913.70-52.91L913.70-52.91L913.70-52.91Q912.63-50.19 911.05-50.19L911.05-50.19L911.05-50.19Q910.20-50.19 909.91-50.84L909.91-50.84L909.91-50.84Q909.62-51.48 908.91-52.34L908.91-52.34L908.91-52.34Q908.19-53.20 905.48-54.55L905.48-54.55L905.48-54.55Q902.76-55.91 900.83-55.91L900.83-55.91L900.83-55.91Q898.90-55.91 898.25-55.84L898.25-55.84L898.25-55.84Q897.61-55.77 896.04-55.41L896.04-55.41L896.04-55.41Q894.47-55.06 893.18-54.34L893.18-54.34L893.18-54.34Q889.89-52.48 889.89-48.91L889.89-48.91L889.89-48.91Q889.89-46.62 890.89-45.55L890.89-45.55L890.89-45.55Q891.89-44.47 892.46-43.90L892.46-43.90L892.46-43.90Q893.04-43.33 894.47-42.54L894.47-42.54L894.47-42.54Q895.90-41.76 896.47-41.47L896.47-41.47L896.47-41.47Q897.04-41.18 899.04-40.25L899.04-40.25L899.04-40.25Q901.04-39.33 901.62-39.04L901.62-39.04L901.62-39.04Q916.77-31.89 916.77-19.59Z" fill="url(#editing-shiny-gradient)"></path></g></g><g filter="url(#editing-shiny2)"><g transform="translate(-209.59995245933533, 137.56500053405762)"><path d="M44.04-0.14L44.04-0.14L35.89-0.29L35.89-0.29Q34.18-0.29 32.46-0.29L32.46-0.29L6.44 1.00L6.44 1.00Q4.29 1.00 4.29-0.43L4.29-0.43L4.29-0.43Q4.29-0.86 4.72-2.43L4.72-2.43L4.72-2.43Q6.15-5.72 6.79-23.31L6.79-23.31L6.79-23.31Q7.44-40.90 7.44-55.41L7.44-55.41L7.44-55.41Q7.44-69.93 6.86-78.94L6.86-78.94L6.86-78.94Q6.01-92.52 4.00-95.24L4.00-95.24L4.00-95.24Q2.43-97.24 2.43-97.81L2.43-97.81L2.43-97.81Q2.43-100.10 10.15-101.82L10.15-101.82L10.15-101.82Q17.88-103.53 21.24-103.53L21.24-103.53L21.24-103.53Q24.60-103.53 25.45-103.17L25.45-103.17L25.45-103.17Q26.31-102.82 26.31-101.67L26.31-101.67L26.31-101.67Q26.31-100.53 25.74-94.38L25.74-94.38L25.74-94.38Q24.31-76.22 24.31-52.12L24.31-52.12L24.31-52.12Q24.31-28.03 25.45-13.59L25.45-13.59L25.45-13.59Q25.45-12.01 28.17-10.87L28.17-10.87L28.17-10.87Q30.89-9.72 34.89-9.72L34.89-9.72L34.89-9.72Q48.91-9.72 48.91-31.32L48.91-31.32L48.91-31.32Q48.91-37.32 48.26-38.75L48.26-38.75L48.26-38.75Q47.62-40.18 47.62-40.61L47.62-40.61L47.62-40.61Q47.62-42.04 49.62-42.04L49.62-42.04L49.62-42.04Q51.19-42.04 53.84-40.47L53.84-40.47L53.84-40.47Q56.49-38.90 58.20-36.54L58.20-36.54L58.20-36.54Q59.92-34.18 61.35-29.10L61.35-29.10L61.35-29.10Q62.78-24.02 62.78-17.16L62.78-17.16L62.78-17.16Q62.78-0.14 58.63-0.14L58.63-0.14L58.63-0.14Q51.34-0.14 44.04-0.14ZM115.83-42.90L115.83-42.90L115.54-24.60L115.54-24.60Q115.54-5.58 119.69-1.72L119.69-1.72L119.69-1.72Q120.26-1.14 120.26-0.43L120.26-0.43L120.26-0.43Q120.26 1.72 111.04 1.72L111.04 1.72L111.04 1.72Q101.82 1.72 101.24-3.72L101.24-3.72L101.24-3.72Q101.10-5.01 101.10-9.01L101.10-9.01L101.67-31.89L101.67-31.89Q101.67-32.89 100.53-32.89L100.53-32.89L100.53-32.89Q93.67-32.89 87.66-29.03L87.66-29.03L87.66-29.03Q81.65-25.17 81.65-19.16L81.65-19.16L81.65-19.16Q81.65-16.02 83.37-13.87L83.37-13.87L83.37-13.87Q85.09-11.73 87.59-11.73L87.59-11.73L87.59-11.73Q90.09-11.73 91.73-12.73L91.73-12.73L91.73-12.73Q93.38-13.73 93.67-13.87L93.67-13.87L93.67-13.87Q96.10-13.59 96.10-8.79L96.10-8.79L96.10-8.79Q96.10-4.00 91.66-1.07L91.66-1.07L91.66-1.07Q87.23 1.86 82.37 1.86L82.37 1.86L82.37 1.86Q77.51 1.86 74.00 0.14L74.00 0.14L74.00 0.14Q70.50-1.57 68.93-3.72L68.93-3.72L68.93-3.72Q67.35-5.86 66.35-8.58L66.35-8.58L66.35-8.58Q65.35-11.87 65.35-14.30L65.35-14.30L65.35-14.30Q65.35-24.31 71.64-30.32L71.64-30.32L71.64-30.32Q77.94-36.32 87.80-38.90L87.80-38.90L87.80-38.90Q100.82-41.47 101.39-43.62L101.39-43.62L101.39-43.62Q101.82-45.19 101.82-48.91L101.82-48.91L101.82-48.91Q101.82-56.49 94.09-56.49L94.09-56.49L94.09-56.49Q90.81-56.49 88.23-54.41L88.23-54.41L88.23-54.41Q85.66-52.34 85.66-49.19L85.66-49.19L86.52-45.76L86.52-45.76Q86.23-43.33 81.37-42.90L81.37-42.90L79.79-42.76L79.79-42.76Q75.50-42.76 73.00-44.90L73.00-44.90L73.00-44.90Q70.50-47.05 70.50-50.62L70.50-50.62L70.50-50.62Q70.50-52.91 72.00-55.70L72.00-55.70L72.00-55.70Q73.50-58.49 75.79-60.20L75.79-60.20L75.79-60.20Q78.08-61.92 82.87-63.28L82.87-63.28L82.87-63.28Q87.66-64.64 92.09-64.64L92.09-64.64L92.09-64.64Q96.53-64.64 98.96-64.35L98.96-64.35L98.96-64.35Q101.39-64.06 105.61-62.99L105.61-62.99L105.61-62.99Q109.82-61.92 112.61-58.92L112.61-58.92L112.61-58.92Q115.40-55.91 115.62-52.55L115.62-52.55L115.62-52.55Q115.83-49.19 115.83-42.90ZM155.44-46.33L155.44-46.33L155.44-46.33Q154.87-45.76 154.87-45.12L154.87-45.12L154.87-45.12Q154.87-44.47 157.51-43.90L157.51-43.90L157.51-43.90Q160.16-43.33 163.31-40.76L163.31-40.76L163.31-40.76Q166.45-38.18 168.03-35.18L168.03-35.18L168.03-35.18Q171.03-29.32 171.31-24.88L171.31-24.88L171.46-23.02L171.46-23.02Q172.17-6.29 177.61-0.14L177.61-0.14L177.61-0.14Q178.32 0.86 178.32 1.29L178.32 1.29L178.32 1.29Q178.32 2.86 174.32 2.86L174.32 2.86L174.32 2.86Q162.31 2.86 159.02-2.15L159.02-2.15L159.02-2.15Q157.30-4.15 157.30-14.59L157.30-14.59L157.30-18.16L157.30-18.16Q157.30-31.46 154.01-36.61L154.01-36.61L154.01-36.61Q152.30-39.04 149.79-39.04L149.79-39.04L149.79-39.04Q147.29-39.04 144.57-34.68L144.57-34.68L144.57-34.68Q141.86-30.32 141.86-27.31L141.86-27.31L141.86-27.31Q141.86-15.30 142.43-10.58L142.43-10.58L142.43-10.58Q143-5.86 143-5.72L143-5.72L143-5.72Q143-1.57 137.35 0.72L137.35 0.72L137.35 0.72Q131.70 3.00 126.70 3.00L126.70 3.00L126.70 3.00Q124.84 3.00 124.84 0.72L124.84 0.72L124.84 0.14L124.84 0.14Q128.27-17.45 128.27-55.34L128.27-55.34L128.27-55.34Q128.27-67.78 127.70-76.36L127.70-76.36L127.41-79.22L127.41-79.22Q127.13-83.23 125.77-86.09L125.77-86.09L125.77-86.09Q124.41-88.95 123.12-89.80L123.12-89.80L121.98-90.52L121.98-90.52Q120.98-91.09 120.98-91.81L120.98-91.81L120.98-91.81Q120.98-94.09 127.84-96.95L127.84-96.95L127.84-96.95Q134.71-99.81 139.71-99.81L139.71-99.81L139.71-99.81Q142.00-99.67 142.14-98.10L142.14-98.10L142.14-98.10Q142.86-92.38 142.86-74.57L142.86-74.57L142.86-74.57Q142.86-56.77 142.00-46.19L142.00-46.19L142.00-46.19Q142.00-44.47 142.57-44.47L142.57-44.47L142.57-44.47Q143.14-44.47 144.36-46.12L144.36-46.12L144.36-46.12Q145.57-47.76 148.65-51.34L148.65-51.34L148.65-51.34Q151.72-54.91 156.94-59.63L156.94-59.63L156.94-59.63Q162.16-64.35 165.38-64.35L165.38-64.35L165.38-64.35Q168.60-64.35 171.74-62.78L171.74-62.78L171.74-62.78Q174.89-61.20 174.89-59.77L174.89-59.77L173.32-58.77L173.32-58.77Q165.17-55.77 155.44-46.33ZM187.47-26.46L187.47-26.46L187.76-55.34L187.76-55.34Q187.76-89.23 184.47-93.67L184.47-93.67L184.47-93.67Q182.90-95.67 182.90-96.45L182.90-96.45L182.90-96.45Q182.90-97.24 184.83-98.31L184.83-98.31L184.83-98.31Q186.76-99.39 192.34-100.67L192.34-100.67L192.34-100.67Q197.91-101.96 202.20-101.96L202.20-101.96L202.20-101.96Q206.49-101.96 206.49-99.96L206.49-99.96L206.21-98.10L206.21-98.10Q204.49-82.65 204.49-67.93L204.49-67.93L204.49-67.93Q204.49-53.20 205.35-35.04L205.35-35.04L205.35-35.04Q206.21-16.87 206.21-8.29L206.21-8.29L206.21-8.29Q206.21 3.29 197.27 11.65L197.27 11.65L197.27 11.65Q188.33 20.02 176.03 20.74L176.03 20.74L176.03 20.74Q173.60 20.45 173.60 19.02L173.60 19.02L173.60 19.02Q173.60 18.02 174.25 17.45L174.25 17.45L174.25 17.45Q174.89 16.87 175.75 16.02L175.75 16.02L175.75 16.02Q176.61 15.16 178.89 11.58L178.89 11.58L178.89 11.58Q181.18 8.01 182.90 3.50L182.90 3.50L182.90 3.50Q184.61-1.00 186.04-9.01L186.04-9.01L186.04-9.01Q187.47-17.02 187.47-26.46ZM253.54-81.94L253.54-81.94L253.54-81.94Q242.24-67.78 237.24-53.63L237.24-53.63L237.38-53.63L237.38-53.63Q257.26-53.63 260.19-53.55L260.19-53.55L260.19-53.55Q263.12-53.48 263.41-53.77L263.41-53.77L263.41-53.77Q263.69-54.05 263.84-54.48L263.84-54.48L263.84-54.48Q261.40-72.07 259.97-78.44L259.97-78.44L259.97-78.44Q258.54-84.80 257.11-84.80L257.11-84.80L257.11-84.80Q255.68-84.80 253.54-81.94ZM240.81-14.59L240.81-14.59L243.96-15.16L243.96-15.16Q245.39-15.16 245.39-13.59L245.39-13.59L245.39-13.59Q245.39-8.58 243.39-5.15L243.39-5.15L243.39-5.15Q241.38-1.72 238.38-0.29L238.38-0.29L238.38-0.29Q233.52 2.15 230.09 2.15L230.09 2.15L230.09 2.15Q223.51 2.15 220.22-2.79L220.22-2.79L220.22-2.79Q216.93-7.72 216.93-17.66L216.93-17.66L216.93-17.66Q216.93-27.60 222.37-43.47L222.37-43.47L214.07-43.47L214.07-43.47Q212.50-43.47 212.50-45.05L212.50-45.05L212.50-45.05Q212.50-46.62 214.93-50.12L214.93-50.12L214.93-50.12Q217.36-53.63 220.08-53.63L220.08-53.63L226.51-53.63L226.51-53.63Q236.67-76.22 250.39-92.66L250.39-92.66L250.39-92.66Q253.97-96.95 259.19-100.67L259.19-100.67L259.19-100.67Q264.41-104.39 267.27-104.39L267.27-104.39L267.27-104.39Q270.13-104.39 271.56-101.82L271.56-101.82L271.56-101.82Q275.28-95.81 280.28-57.92L280.28-57.92L280.28-57.92Q282.00-41.61 286.21-24.24L286.21-24.24L286.21-24.24Q290.43-6.86 294.01-4.00L294.01-4.00L294.01-4.00Q294.87-3.43 294.87-2.57L294.87-2.57L294.87-2.57Q294.87-0.43 288.79 1.43L288.79 1.43L288.79 1.43Q282.71 3.29 279.49 3.29L279.49 3.29L279.49 3.29Q276.28 3.29 274.56 2.50L274.56 2.50L274.56 2.50Q272.84 1.72 272.42 0.86L272.42 0.86L272.42 0.86Q269.84-4.72 267.27-25.74L267.27-25.74L266.41-32.46L266.41-32.46Q265.84-39.18 265.27-42.61L265.27-42.61L264.26-43.33L234.38-43.47L234.38-43.47Q232.66-36.18 232.66-30.75L232.66-30.75L232.66-30.75Q232.66-25.31 233.02-22.81L233.02-22.81L233.02-22.81Q233.38-20.31 235.38-17.45L235.38-17.45L235.38-17.45Q237.38-14.59 240.81-14.59ZM344.06-92.95L344.06-92.95L343.49-98.24L343.49-98.24Q343.49-100.82 350.06-101.89L350.06-101.89L350.06-101.89Q356.64-102.96 362.93-102.96L362.93-102.96L362.93-102.96Q369.23-102.96 369.23-100.82L369.23-100.82L369.23-100.82Q369.23-99.81 367.80-98.38L367.80-98.38L367.80-98.38Q362.22-92.52 354.28-79.22L354.28-79.22L354.28-79.22Q346.35-65.92 341.20-55.48L341.20-55.48L336.05-45.19L336.05-45.19Q333.48-39.75 333.48-33.25L333.48-33.25L333.48-33.25Q333.48-26.74 333.91-20.38L333.91-20.38L333.91-20.38Q334.33-14.01 334.76-9.58L334.76-9.58L334.76-9.58Q335.19-5.15 335.19-4.43L335.19-4.43L335.19-4.43Q335.19-0.86 328.61 1.36L328.61 1.36L328.61 1.36Q322.04 3.58 317.82 3.58L317.82 3.58L317.82 3.58Q313.60 3.58 313.60 2.00L313.60 2.00L314.03 0.14L314.03 0.14Q316.46-12.87 316.46-30.75L316.46-30.75L316.46-30.75Q316.46-35.18 315.03-41.76L315.03-41.76L314.60-43.62L314.60-43.62Q305.45-68.35 297.44-80.08L297.44-80.08L297.44-80.08Q290.58-90.52 287.43-92.38L287.43-92.38L286.14-93.24L286.14-93.24Q284.71-94.09 284.71-95.24L284.71-95.24L284.71-95.24Q284.71-97.67 292.15-100.24L292.15-100.24L292.15-100.24Q299.59-102.82 303.37-102.82L303.37-102.82L303.37-102.82Q307.16-102.82 308.45-100.53L308.45-100.53L308.45-100.53Q321.32-73.65 328.47-57.06L328.47-57.06L328.47-57.06Q328.90-56.20 329.69-56.20L329.69-56.20L329.69-56.20Q330.47-56.20 331.55-57.92L331.55-57.92L331.55-57.92Q332.62-59.63 334.76-63.35L334.76-63.35L334.76-63.35Q336.91-67.07 340.48-76.58L340.48-76.58L340.48-76.58Q344.06-86.09 344.06-92.95ZM394.25-81.94L394.25-81.94L394.25-81.94Q382.95-67.78 377.95-53.63L377.95-53.63L378.09-53.63L378.09-53.63Q397.97-53.63 400.90-53.55L400.90-53.55L400.90-53.55Q403.83-53.48 404.12-53.77L404.12-53.77L404.12-53.77Q404.40-54.05 404.55-54.48L404.55-54.48L404.55-54.48Q402.12-72.07 400.69-78.44L400.69-78.44L400.69-78.44Q399.26-84.80 397.83-84.80L397.83-84.80L397.83-84.80Q396.40-84.80 394.25-81.94ZM381.52-14.59L381.52-14.59L384.67-15.16L384.67-15.16Q386.10-15.16 386.10-13.59L386.10-13.59L386.10-13.59Q386.10-8.58 384.10-5.15L384.10-5.15L384.10-5.15Q382.10-1.72 379.09-0.29L379.09-0.29L379.09-0.29Q374.23 2.15 370.80 2.15L370.80 2.15L370.80 2.15Q364.22 2.15 360.93-2.79L360.93-2.79L360.93-2.79Q357.64-7.72 357.64-17.66L357.64-17.66L357.64-17.66Q357.64-27.60 363.08-43.47L363.08-43.47L354.78-43.47L354.78-43.47Q353.21-43.47 353.21-45.05L353.21-45.05L353.21-45.05Q353.21-46.62 355.64-50.12L355.64-50.12L355.64-50.12Q358.07-53.63 360.79-53.63L360.79-53.63L367.22-53.63L367.22-53.63Q377.38-76.22 391.11-92.66L391.11-92.66L391.11-92.66Q394.68-96.95 399.90-100.67L399.90-100.67L399.90-100.67Q405.12-104.39 407.98-104.39L407.98-104.39L407.98-104.39Q410.84-104.39 412.27-101.82L412.27-101.82L412.27-101.82Q415.99-95.81 420.99-57.92L420.99-57.92L420.99-57.92Q422.71-41.61 426.93-24.24L426.93-24.24L426.93-24.24Q431.14-6.86 434.72-4.00L434.72-4.00L434.72-4.00Q435.58-3.43 435.58-2.57L435.58-2.57L435.58-2.57Q435.58-0.43 429.50 1.43L429.50 1.43L429.50 1.43Q423.42 3.29 420.21 3.29L420.21 3.29L420.21 3.29Q416.99 3.29 415.27 2.50L415.27 2.50L415.27 2.50Q413.56 1.72 413.13 0.86L413.13 0.86L413.13 0.86Q410.55-4.72 407.98-25.74L407.98-25.74L407.12-32.46L407.12-32.46Q406.55-39.18 405.98-42.61L405.98-42.61L404.98-43.33L375.09-43.47L375.09-43.47Q373.37-36.18 373.37-30.75L373.37-30.75L373.37-30.75Q373.37-25.31 373.73-22.81L373.73-22.81L373.73-22.81Q374.09-20.31 376.09-17.45L376.09-17.45L376.09-17.45Q378.09-14.59 381.52-14.59ZM526.53-32.75L526.53-32.75L526.53-32.75Q529.24-32.75 529.24-25.88L529.24-25.88L529.24-25.88Q529.24-19.02 526.67-13.59L526.67-13.59L526.67-13.59Q524.10-8.15 520.45-5.15L520.45-5.15L520.45-5.15Q516.80-2.15 512.23-0.29L512.23-0.29L512.23-0.29Q496.93 6.44 483.63-0.57L483.63-0.57L483.63-0.57Q476.91-4.15 473.33-9.08L473.33-9.08L473.33-9.08Q469.76-14.01 467.61-20.88L467.61-20.88L467.61-20.88Q464.32-31.17 464.32-42.47L464.32-42.47L464.32-42.47Q464.32-53.77 466.47-63.64L466.47-63.64L466.47-63.64Q468.61-73.50 473.04-82.44L473.04-82.44L473.04-82.44Q477.48-91.38 485.63-96.81L485.63-96.81L485.63-96.81Q493.78-102.25 504.50-102.25L504.50-102.25L504.50-102.25Q509.08-102.25 514.01-100.74L514.01-100.74L514.01-100.74Q518.95-99.24 522.09-97.03L522.09-97.03L522.09-97.03Q525.24-94.81 527.67-90.23L527.67-90.23L527.67-90.23Q530.10-85.66 530.10-79.51L530.10-79.51L530.10-79.51Q530.10-72.93 526.96-67.64L526.96-67.64L526.96-67.64Q525.53-65.21 522.38-63.28L522.38-63.28L522.38-63.28Q519.23-61.35 514.94-61.35L514.94-61.35L514.94-61.35Q508.37-61.35 505.65-67.21L505.65-67.21L505.65-67.21Q504.50-69.50 504.50-72.22L504.50-72.22L504.50-72.22Q504.50-74.93 506.36-75.36L506.36-75.36L506.36-75.36Q508.37-75.93 510.08-78.51L510.08-78.51L510.08-78.51Q511.80-81.08 511.80-84.51L511.80-84.51L511.80-84.51Q511.80-87.23 510.37-89.23L510.37-89.23L510.37-89.23Q507.65-92.81 502.50-92.81L502.50-92.81L502.50-92.81Q497.35-92.81 493.14-88.09L493.14-88.09L493.14-88.09Q488.92-83.37 486.77-76.22L486.77-76.22L486.77-76.22Q482.48-61.92 482.48-49.91L482.48-49.91L482.48-49.91Q482.48-37.90 485.77-30.60L485.77-30.60L485.77-30.60Q489.78-21.59 495.92-18.59L495.92-18.59L495.92-18.59Q499.79-16.73 504.79-16.73L504.79-16.73L504.79-16.73Q513.23-16.73 519.95-24.31L519.95-24.31L519.95-24.31Q522.81-27.31 524.67-31.46L524.67-31.46L524.67-31.46Q525.38-32.75 526.53-32.75ZM581.44-49.19L580.72-38.32L581.29-33.32L581.29-33.32Q581.29-30.60 576.15-30.60L576.15-30.60L576.15-30.60Q565.71-30.60 565.71-38.47L565.71-38.47L565.71-38.47Q565.71-40.33 566.71-43.62L566.71-43.62L566.71-43.62Q567.71-46.90 567.71-49.34L567.71-49.34L567.71-49.34Q567.71-51.77 566.28-53.55L566.28-53.55L566.28-53.55Q564.85-55.34 562.13-55.34L562.13-55.34L562.13-55.34Q559.42-55.34 557.49-53.41L557.49-53.41L557.49-53.41Q555.55-51.48 555.13-49.48L555.13-49.48L554.55-47.48L554.55-47.48Q553.70-43.04 553.70-32.68L553.70-32.68L553.70-32.68Q553.70-22.31 553.98-16.37L553.98-16.37L553.98-16.37Q554.27-10.44 554.55-8.22L554.55-8.22L554.55-8.22Q554.84-6.01 554.84-5.58L554.84-5.58L554.84-5.58Q554.84-2.00 550.41 0.21L550.41 0.21L550.41 0.21Q545.97 2.43 541.54 2.43L541.54 2.43L541.54 2.43Q537.11 2.43 537.11 0.57L537.11 0.57L537.82-3.86L537.82-3.86Q539.82-16.30 539.82-36.32L539.82-36.32L539.82-36.32Q539.82-56.34 538.39-63.49L538.39-63.49L538.39-63.49Q538.39-65.21 541.40-65.21L541.40-65.21L541.40-65.21Q549.12-65.21 551.69-59.92L551.69-59.92L551.69-59.92Q551.84-59.35 552.19-59.35L552.19-59.35L552.19-59.35Q552.55-59.35 554.13-60.63L554.13-60.63L554.13-60.63Q558.84-64.49 565.28-64.49L565.28-64.49L565.28-64.49Q569.28-64.49 573.29-62.92L573.29-62.92L573.29-62.92Q581.44-59.63 581.44-49.19L581.44-49.19ZM601.46-36.32L601.46-36.32L601.60-32.75L601.60-32.75Q601.60-31.89 602.75-31.89L602.75-31.89L602.75-31.89Q607.32-32.32 610.75-34.25L610.75-34.25L610.75-34.25Q614.18-36.18 615.90-38.61L615.90-38.61L615.90-38.61Q619.33-43.90 619.62-47.76L619.62-47.76L619.76-49.48L619.76-49.48Q619.76-57.20 613.61-57.20L613.61-57.20L613.61-57.20Q609.04-57.20 606.18-53.20L606.18-53.20L606.18-53.20Q601.46-46.90 601.46-36.32ZM632.63-17.30L632.63-17.30L632.63-17.30Q632.63-11.87 630.42-7.79L630.42-7.79L630.42-7.79Q628.20-3.72 625.41-1.79L625.41-1.79L625.41-1.79Q622.62 0.14 618.90 1.29L618.90 1.29L618.90 1.29Q614.18 2.72 609.89 2.72L609.89 2.72L609.89 2.72Q597.88 2.72 592.16-6.29L592.16-6.29L592.16-6.29Q586.44-15.30 586.44-29.24L586.44-29.24L586.44-29.24Q586.44-43.19 593.52-54.05L593.52-54.05L593.52-54.05Q600.60-64.92 614.76-64.92L614.76-64.92L614.76-64.92Q627.63-64.92 632.20-55.91L632.20-55.91L632.20-55.91Q634.06-52.48 634.06-49.41L634.06-49.41L634.06-49.41Q634.06-46.33 633.78-44.54L633.78-44.54L633.78-44.54Q633.49-42.76 631.77-39.18L631.77-39.18L631.77-39.18Q630.06-35.61 627.20-32.75L627.20-32.75L627.20-32.75Q624.34-29.89 618.19-27.31L618.19-27.31L618.19-27.31Q612.04-24.74 603.75-23.88L603.75-23.88L603.75-23.88Q602.60-23.88 602.60-22.88L602.60-22.88L602.60-22.88Q602.60-21.59 603.53-19.09L603.53-19.09L603.53-19.09Q604.46-16.59 605.61-14.87L605.61-14.87L605.61-14.87Q608.75-10.87 614.90-10.87L614.90-10.87L614.90-10.87Q621.05-10.87 625.34-14.87L625.34-14.87L625.34-14.87Q627.63-17.02 629.06-20.16L629.06-20.16L629.06-20.16Q629.63-21.31 630.56-21.31L630.56-21.31L630.56-21.31Q631.49-21.31 632.06-19.73L632.06-19.73L632.06-19.73Q632.63-18.16 632.63-17.30ZM686.26-42.90L686.26-42.90L685.97-24.60L685.97-24.60Q685.97-5.58 690.12-1.72L690.12-1.72L690.12-1.72Q690.69-1.14 690.69-0.43L690.69-0.43L690.69-0.43Q690.69 1.72 681.47 1.72L681.47 1.72L681.47 1.72Q672.24 1.72 671.67-3.72L671.67-3.72L671.67-3.72Q671.53-5.01 671.53-9.01L671.53-9.01L672.10-31.89L672.10-31.89Q672.10-32.89 670.96-32.89L670.96-32.89L670.96-32.89Q664.09-32.89 658.09-29.03L658.09-29.03L658.09-29.03Q652.08-25.17 652.08-19.16L652.08-19.16L652.08-19.16Q652.08-16.02 653.80-13.87L653.80-13.87L653.80-13.87Q655.51-11.73 658.01-11.73L658.01-11.73L658.01-11.73Q660.52-11.73 662.16-12.73L662.16-12.73L662.16-12.73Q663.81-13.73 664.09-13.87L664.09-13.87L664.09-13.87Q666.52-13.59 666.52-8.79L666.52-8.79L666.52-8.79Q666.52-4.00 662.09-1.07L662.09-1.07L662.09-1.07Q657.66 1.86 652.80 1.86L652.80 1.86L652.80 1.86Q647.93 1.86 644.43 0.14L644.43 0.14L644.43 0.14Q640.93-1.57 639.35-3.72L639.35-3.72L639.35-3.72Q637.78-5.86 636.78-8.58L636.78-8.58L636.78-8.58Q635.78-11.87 635.78-14.30L635.78-14.30L635.78-14.30Q635.78-24.31 642.07-30.32L642.07-30.32L642.07-30.32Q648.36-36.32 658.23-38.90L658.23-38.90L658.23-38.90Q671.24-41.47 671.81-43.62L671.81-43.62L671.81-43.62Q672.24-45.19 672.24-48.91L672.24-48.91L672.24-48.91Q672.24-56.49 664.52-56.49L664.52-56.49L664.52-56.49Q661.23-56.49 658.66-54.41L658.66-54.41L658.66-54.41Q656.08-52.34 656.08-49.19L656.08-49.19L656.94-45.76L656.94-45.76Q656.66-43.33 651.79-42.90L651.79-42.90L650.22-42.76L650.22-42.76Q645.93-42.76 643.43-44.90L643.43-44.90L643.43-44.90Q640.93-47.05 640.93-50.62L640.93-50.62L640.93-50.62Q640.93-52.91 642.43-55.70L642.43-55.70L642.43-55.70Q643.93-58.49 646.22-60.20L646.22-60.20L646.22-60.20Q648.50-61.92 653.30-63.28L653.30-63.28L653.30-63.28Q658.09-64.64 662.52-64.64L662.52-64.64L662.52-64.64Q666.95-64.64 669.38-64.35L669.38-64.35L669.38-64.35Q671.81-64.06 676.03-62.99L676.03-62.99L676.03-62.99Q680.25-61.92 683.04-58.92L683.04-58.92L683.04-58.92Q685.83-55.91 686.04-52.55L686.04-52.55L686.04-52.55Q686.26-49.19 686.26-42.90ZM692.84-55.77L692.84-55.77L693.26-61.49L693.26-61.49Q693.41-62.78 695.27-62.78L695.27-62.78L700.27-62.78L699.70-74.22L699.70-74.79L699.70-74.79Q699.70-78.08 704.70-81.08L704.70-81.08L704.70-81.08Q709.71-84.08 713.86-84.08L713.86-84.08L713.86-84.08Q715.14-84.08 715.14-82.94L715.14-82.94L715.14-82.80L715.14-82.80Q714.57-78.94 714.00-62.92L714.00-62.92L714.00-62.92Q720.29-62.92 722.01-63.21L722.01-63.21L722.01-63.21Q723.72-63.49 723.87-63.49L723.87-63.49L723.87-63.49Q724.87-63.49 724.87-61.78L724.87-61.78L724.87-61.78Q724.87-60.06 723.29-57.41L723.29-57.41L723.29-57.41Q721.72-54.77 719.86-54.63L719.86-54.63L713.86-54.63L713.86-54.63Q713.71-49.76 713.71-38.25L713.71-38.25L713.71-38.25Q713.71-26.74 713.93-19.31L713.93-19.31L713.93-19.31Q714.14-11.87 714.43-8.08L714.43-8.08L714.43-8.08Q714.71-4.29 715.07-2.00L715.07-2.00L715.07-2.00Q715.43 0.29 715.64 1.29L715.64 1.29L715.64 1.29Q715.86 2.29 715.86 2.57L715.86 2.57L715.86 2.57Q715.86 4.00 714.00 4.15L714.00 4.15L714.00 4.15Q708.42 4.15 702.92 2.57L702.92 2.57L702.92 2.57Q697.41 1.00 697.41-2.86L697.41-2.86L697.41-2.86Q700.41-26.88 700.41-54.48L700.41-54.48L700.41-54.48Q696.55-54.48 694.55-54.20L694.55-54.20L694.41-54.20L694.41-54.20Q693.12-54.20 692.84-55.77ZM741.74-76.51L741.74-76.51L738.31-76.65L738.31-76.65Q734.45-76.65 733.30-74.79L733.30-74.79L733.30-74.79Q733.02-74.36 732.59-74.36L732.59-74.36L732.59-74.36Q730.73-74.36 730.73-80.72L730.73-80.72L730.73-80.72Q730.73-87.09 732.66-88.80L732.66-88.80L732.66-88.80Q734.59-90.52 739.38-90.52L739.38-90.52L739.38-90.52Q744.17-90.52 745.89-88.87L745.89-88.87L745.89-88.87Q747.60-87.23 747.60-83.37L747.60-83.37L747.60-83.37Q747.60-79.51 746.32-78.01L746.32-78.01L746.32-78.01Q745.03-76.51 741.74-76.51ZM730.30-4.29L730.30-4.29L731.87-37.61L731.87-37.61Q731.87-49.48 729.16-53.77L729.16-53.77L729.16-53.77Q728.30-55.20 727.16-55.91L727.16-55.91L727.16-55.91Q726.30-56.20 726.30-57.06L726.30-57.06L726.30-57.06Q726.30-59.63 733.59-62.06L733.59-62.06L733.59-62.06Q740.88-64.49 744.24-64.49L744.24-64.49L744.24-64.49Q747.60-64.49 747.75-62.78L747.75-62.78L747.75-62.78Q747.75-59.92 746.96-46.55L746.96-46.55L746.96-46.55Q746.17-33.18 746.17-18.45L746.17-18.45L746.17-18.45Q746.17-3.72 747.89-0.14L747.89-0.14L747.89-0.14Q748.32 0.57 748.32 1.29L748.32 1.29L748.32 1.29Q748.32 3.15 742.89 3.15L742.89 3.15L742.89 3.15Q737.45 3.15 731.73 0.29L731.73 0.29L731.73 0.29Q730.30-0.43 730.30-4.29ZM770.63-53.91L770.63-53.91L770.63-53.91Q766.91-53.77 765.26-53.70L765.26-53.70L765.26-53.70Q763.62-53.63 763.62-54.48L763.62-54.48L763.62-54.48Q763.62-55.34 764.48-56.20L764.48-56.20L764.48-56.20Q773.63-64.64 795.37-64.64L795.37-64.64L795.37-64.64Q802.80-64.64 807.09-63.35L807.09-63.35L808.52-62.92L808.52-62.92Q810.24-62.21 810.24-61.35L810.24-61.35L810.24-61.35Q810.24-60.63 809.24-60.20L809.24-60.20L809.24-60.20Q805.38-59.06 801.80-56.56L801.80-56.56L801.80-56.56Q798.23-54.05 798.23-53.05L798.23-53.05L799.08-52.05L799.08-52.05Q803.66-49.48 806.16-43.90L806.16-43.90L806.16-43.90Q808.67-38.32 808.95-34.03L808.95-34.03L809.24-29.60L809.24-29.60Q809.24-15.44 801.37-6.29L801.37-6.29L801.37-6.29Q793.51 2.86 779.92 2.86L779.92 2.86L779.92 2.86Q773.06 2.86 768.05 0.43L768.05 0.43L768.05 0.43Q763.05-2.00 760.69-5.08L760.69-5.08L760.69-5.08Q758.33-8.15 756.90-12.01L756.90-12.01L756.90-12.01Q755.18-17.30 755.18-22.95L755.18-22.95L755.18-22.95Q755.18-28.60 757.11-34.32L757.11-34.32L757.11-34.32Q759.04-40.04 761.55-42.76L761.55-42.76L761.55-42.76Q764.05-45.47 767.20-47.19L767.20-47.19L767.20-47.19Q771.20-49.34 773.63-49.34L773.63-49.34L773.63-49.34Q776.06-49.34 776.06-48.33L776.06-48.33L775.20-46.90L775.20-46.90Q772.06-43.19 770.70-37.18L770.70-37.18L770.70-37.18Q769.34-31.17 769.34-26.53L769.34-26.53L769.34-26.53Q769.34-21.88 770.48-17.30L770.48-17.30L770.48-17.30Q771.63-12.73 773.06-10.51L773.06-10.51L773.06-10.51Q774.49-8.29 776.35-7.15L776.35-7.15L776.35-7.15Q779.06-5.43 782.07-5.43L782.07-5.43L782.07-5.43Q785.07-5.43 787.93-7.79L787.93-7.79L787.93-7.79Q790.79-10.15 792.08-14.01L792.08-14.01L792.08-14.01Q794.65-21.16 794.65-28.74L794.65-28.74L794.65-28.74Q794.65-40.76 788.57-47.33L788.57-47.33L788.57-47.33Q782.50-53.91 770.63-53.91ZM816.24 1.00L816.24 1.00L816.24 1.00Q818.82-14.44 818.82-36.04L818.82-36.04L818.82-36.04Q818.82-57.63 817.53-64.06L817.53-64.06L817.53-64.06Q817.53-65.92 821.82-65.92L821.82-65.92L821.82-65.92Q828.40-65.92 830.54-60.92L830.54-60.92L830.54-60.92Q830.69-60.49 831.26-60.49L831.26-60.49L831.26-60.49Q831.83-60.49 832.12-60.78L832.12-60.78L832.12-60.78Q836.55-65.35 845.85-65.35L845.85-65.35L845.85-65.35Q855.14-65.35 860.57-60.63L860.57-60.63L860.57-60.63Q866.01-55.91 866.01-46.90L866.01-46.90L866.01-46.90Q866.01-41.47 865.08-31.46L865.08-31.46L865.08-31.46Q864.15-21.45 864.15-16.59L864.15-16.59L864.15-16.59Q864.15-5.01 868.01 0.14L868.01 0.14L868.01 0.14Q868.58 0.86 868.58 1.57L868.58 1.57L868.58 1.57Q868.58 3.43 864.58 3.43L864.58 3.43L864.58 3.43Q846.85 3.43 846.85-12.30L846.85-12.30L846.85-12.30Q846.85-18.30 849.56-29.03L849.56-29.03L849.56-29.03Q852.28-39.75 852.28-45.33L852.28-45.33L852.28-45.33Q852.28-56.77 842.84-56.77L842.84-56.77L842.84-56.77Q838.27-56.77 835.91-54.05L835.91-54.05L835.91-54.05Q833.55-51.34 833.26-47.83L833.26-47.83L833.26-47.83Q832.98-44.33 832.98-34.61L832.98-34.61L832.98-34.61Q832.98-19.73 833.98-8.72L833.98-8.72L834.26-5.58L834.26-5.58Q834.26-1.57 829.04 0.64L829.04 0.64L829.04 0.64Q823.82 2.86 820.03 2.86L820.03 2.86L820.03 2.86Q816.24 2.86 816.24 1.00ZM916.77-19.59L916.77-19.59L916.77-19.59Q916.77-13.44 914.41-8.87L914.41-8.87L914.41-8.87Q912.05-4.29 909.05-2.15L909.05-2.15L909.05-2.15Q906.05 0 901.90 1.29L901.90 1.29L901.90 1.29Q896.47 3.00 892.03 3.00L892.03 3.00L892.03 3.00Q882.74 3.00 876.59-0.64L876.59-0.64L876.59-0.64Q870.44-4.29 870.44-12.30L870.44-12.30L870.44-12.30Q870.44-17.02 873.02-20.02L873.02-20.02L873.02-20.02Q877.02-24.45 882.60-24.45L882.60-24.45L882.60-24.45Q884.31-24.45 884.31-22.88L884.31-22.88L884.31-22.88Q884.31-22.74 883.67-20.66L883.67-20.66L883.67-20.66Q883.03-18.59 883.03-15.44L883.03-15.44L883.03-15.44Q883.03-12.30 885.53-9.87L885.53-9.87L885.53-9.87Q888.03-7.44 891.61-7.44L891.61-7.44L891.61-7.44Q895.18-7.44 897.33-8.65L897.33-8.65L897.33-8.65Q899.47-9.87 900.33-11.73L900.33-11.73L900.33-11.73Q901.62-14.30 901.62-16.59L901.62-16.59L901.62-16.59Q901.62-20.74 897.47-23.74L897.47-23.74L897.47-23.74Q893.32-26.74 888.32-28.46L888.32-28.46L888.32-28.46Q883.31-30.17 879.16-34.18L879.16-34.18L879.16-34.18Q875.02-38.18 875.02-44.19L875.02-44.19L875.02-44.19Q875.02-54.48 881.52-59.63L881.52-59.63L881.52-59.63Q888.03-64.78 899.18-64.78L899.18-64.78L899.18-64.78Q904.05-64.78 909.41-63.42L909.41-63.42L909.41-63.42Q914.77-62.06 914.77-58.84L914.77-58.84L914.77-58.84Q914.77-55.63 913.70-52.91L913.70-52.91L913.70-52.91Q912.63-50.19 911.05-50.19L911.05-50.19L911.05-50.19Q910.20-50.19 909.91-50.84L909.91-50.84L909.91-50.84Q909.62-51.48 908.91-52.34L908.91-52.34L908.91-52.34Q908.19-53.20 905.48-54.55L905.48-54.55L905.48-54.55Q902.76-55.91 900.83-55.91L900.83-55.91L900.83-55.91Q898.90-55.91 898.25-55.84L898.25-55.84L898.25-55.84Q897.61-55.77 896.04-55.41L896.04-55.41L896.04-55.41Q894.47-55.06 893.18-54.34L893.18-54.34L893.18-54.34Q889.89-52.48 889.89-48.91L889.89-48.91L889.89-48.91Q889.89-46.62 890.89-45.55L890.89-45.55L890.89-45.55Q891.89-44.47 892.46-43.90L892.46-43.90L892.46-43.90Q893.04-43.33 894.47-42.54L894.47-42.54L894.47-42.54Q895.90-41.76 896.47-41.47L896.47-41.47L896.47-41.47Q897.04-41.18 899.04-40.25L899.04-40.25L899.04-40.25Q901.04-39.33 901.62-39.04L901.62-39.04L901.62-39.04Q916.77-31.89 916.77-19.59Z" fill="url(#editing-shiny-gradient2)"></path></g></g><style>text {
  font-size: 64px;
  font-family: Arial Black;
  dominant-baseline: central;
  text-anchor: middle;
}</style></svg>